<?xml version="1.0" encoding="UTF-8" standalone="no"?>
<!-- Created with Inkscape (http://www.inkscape.org/) -->

<svg
   width="924.98334mm"
   height="258.76251mm"
   viewBox="0 0 924.98334 258.76251"
   version="1.1"
   id="svg89640"
   inkscape:version="1.1.1 (3bf5ae0d25, 2021-09-20)"
   sodipodi:docname="R800_DFF8NRNOE.svg"
   xmlns:inkscape="http://www.inkscape.org/namespaces/inkscape"
   xmlns:sodipodi="http://sodipodi.sourceforge.net/DTD/sodipodi-0.dtd"
   xmlns="http://www.w3.org/2000/svg"
   xmlns:svg="http://www.w3.org/2000/svg">
  <sodipodi:namedview
     id="namedview89642"
     pagecolor="#ffffff"
     bordercolor="#666666"
     borderopacity="1.0"
     inkscape:pageshadow="2"
     inkscape:pageopacity="0.0"
     inkscape:pagecheckerboard="0"
     inkscape:document-units="mm"
     showgrid="false"
     fit-margin-top="0"
     fit-margin-left="0"
     fit-margin-right="0"
     fit-margin-bottom="0"
     inkscape:zoom="1.6806293"
     inkscape:cx="261.21167"
     inkscape:cy="479.58225"
     inkscape:window-width="2560"
     inkscape:window-height="1494"
     inkscape:window-x="-11"
     inkscape:window-y="-11"
     inkscape:window-maximized="1"
     inkscape:current-layer="layer4" />
  <defs
     id="defs89637" />
  <g
     inkscape:groupmode="layer"
     id="layer4"
     inkscape:label="diff"
     style="display:inline;opacity:0.458"
     transform="translate(-161.37462,-0.7009076)">
    <path
       style="fill:#808000;stroke-width:2.514;stroke-linecap:round"
       d="m 200.28117,149.81485 h 9.07263 v -15.1396 h 19.08647 v 8.10723 h 8.97357 v -25.22834 h 3.06991 V 99.055988 h 12.08284 v 7.832202 h -6.0611 v 15.31017 h -4.48679 v 20.42669 h 14.79853 v -16.05798 h 8.06834 v 15.97926 h 14.87724 v -15.66439 h 30.78762 l -0.01,-28.022739 h 7.47798 v 32.365109 h -32.52148 v 11.32687 l 14.45626,-0.005 v -7.51733 h 7.95027 v 16.64834 h -4.84101 v 5.90366 h 14.71981 v 9.42619 l -117.44559,0.007 z"
       id="path215" />
    <path
       style="fill:#808000;stroke:none;stroke-width:2.514;stroke-linecap:round"
       d="m 1054.7568,244.16811 h 8.5406 v -21.92228 h 14.2082 v -8.02899 h 4.5655 v -10.03623 h -27.334 z"
       id="path1315" />
    <path
       style="fill:#808000;stroke:none;stroke-width:2.514;stroke-linecap:round"
       d="m 201.51955,190.64153 v 36.60273 h 4.25064 v 19.12788 h 10.07559 v -55.81395 z"
       id="path2656" />
    <rect
       style="fill:#808000;stroke:none;stroke-width:2.514;stroke-linecap:round"
       id="rect2795"
       width="19.693369"
       height="38.039341"
       x="1062.1809"
       y="34.765011" />
    <path
       style="fill:#808000;stroke:none;stroke-width:2.514;stroke-linecap:round"
       d="m 1059.2042,139.00413 v 28.49503 h 17.9471 v -8.34385 h -11.1776 v -8.18641 h 16.3729 v -44.23814 h -17.3175 v 32.31273 z"
       id="path3012" />
    <rect
       style="fill:#808000;stroke:none;stroke-width:2.514;stroke-linecap:round"
       id="rect3653"
       width="30.462917"
       height="40.459793"
       x="166.64856"
       y="186.62704" />
    <path
       style="fill:#808000;stroke:none;stroke-width:2.514;stroke-linecap:round"
       d="m 167.27461,147.58844 v 18.14526 h 30.05656 v -18.6462 h -10.79809 v -5.23207 h -9.12829 v 5.45471 h -10.13018 z"
       id="path4234" />
    <path
       style="fill:#808000;stroke:none;stroke-width:2.514;stroke-linecap:round"
       d="m 199.2368,64.539219 h 14.87724 V 42.735013 h -6.92697 V 28.093918 h 8.34385 v -7.163114 h -16.6877 V 64.54414 Z"
       id="path5204" />
    <rect
       style="fill:#808000;stroke:none;stroke-width:2.514;stroke-linecap:round"
       id="rect6502"
       width="28.943356"
       height="38.182964"
       x="167.16328"
       y="32.649918" />
    <path
       style="fill:#808000;stroke:none;stroke-width:2.514;stroke-linecap:round"
       d="m 166.94065,92.317762 v 18.423558 h 11.13206 v 6.62358 h -4.95377 v 18.14525 h 23.71129 V 117.6432 H 181.57931 V 113.58 h 15.36224 v -7.51414 h -8.57168 V 92.359508 Z"
       id="path6537" />
    <path
       style="display:inline;fill:#808000;stroke:none;stroke-width:2.514;stroke-linecap:round"
       d="m 220.26322,203.08176 v 39.74145 h 82.7112 v -24.15657 h -3.33961 v -7.01319 h 14.02639 v -8.57169 z"
       id="path11432" />
    <path
       style="fill:#808000;stroke:none;stroke-width:2.514;stroke-linecap:round"
       d="m 261.45184,119.14603 h 18.31224 v 6.12263 h 5.84433 v -6.01131 h 18.9245 V 93.82059 H 261.5075 Z"
       id="path14276" />
    <path
       style="fill:#808000;stroke:none;stroke-width:2.514;stroke-linecap:round"
       d="m 264.72814,68.474996 h 51.00768 V 26.67704 H 309.045 v 7.871555 h -14.79853 v -7.79284 h -6.84825 v 7.871556 h -14.71981 v -8.107702 h -8.18642 v 41.955387"
       id="path14437" />
    <path
       style="display:inline;fill:#808000;stroke:none;stroke-width:2.514;stroke-linecap:round"
       d="m 222.71227,16.731074 v 54.881055 h 30.16788 v -8.905647 h -4.11886 V 16.731074 Z"
       id="path14600" />
    <g
       id="g14837">
      <path
         style="fill:#808000;stroke:none;stroke-width:2.514;stroke-linecap:round"
         d="m 196.40304,92.876819 v 11.335041 h 14.09008 v 19.44274 h 7.39927 V 92.876819 Z"
         id="path4831" />
      <rect
         style="fill:#808000;stroke:none;stroke-width:2.514;stroke-linecap:round"
         id="rect14753"
         width="18.419436"
         height="30.935211"
         x="217.8924"
         y="92.719383" />
    </g>
  </g>
  <g
     inkscape:groupmode="layer"
     id="layer2"
     inkscape:label="poly"
     style="display:inline"
     transform="translate(-161.37462,-0.7009076)">
    <path
       style="fill:none;stroke:#ff6600;stroke-width:2.514;stroke-linecap:round"
       d="m 1068.7639,155.77054 v 70.21428"
       id="path500" />
    <path
       style="fill:none;stroke:#ff6600;stroke-width:2.514;stroke-linecap:round"
       d="m 1074.7112,30.770247 v 30.462919 l -5.2499,1.406712 v 58.102242 h 3.2033 v 34.31998 h 9.7607 v 20.46605 h -4.0145"
       id="path681" />
    <path
       style="fill:none;stroke:#ff6600;stroke-width:2.514;stroke-linecap:round"
       d="m 174.59883,145.38009 v 8.97358 l 4.26636,1.14316 v 21.21205 h -3.40049"
       id="path2469" />
    <path
       style="fill:none;stroke:#ff6600;stroke-width:2.514;stroke-linecap:round"
       d="m 178.86519,176.70888 v 19.99375 l -4.05189,2.33936 v 30.48502"
       id="path2471" />
    <path
       style="fill:none;stroke:#ff6600;stroke-width:2.514;stroke-linecap:round"
       d="m 213.16945,174.97714 v -21.2532 h -6.6121 v -9.28843 m 6.6121,30.54163 v 38.17704 h -11.96476"
       id="path2473" />
    <path
       style="fill:none;stroke:#ff6600;stroke-width:2.514;stroke-linecap:round"
       d="m 198.25286,176.11852 c -0.55101,0.0394 -12.3977,0 -12.3977,0 v -20.78091 l 5.25256,-1.40742 v -8.43203"
       id="path3503" />
    <path
       style="fill:none;stroke:#ff6600;stroke-width:2.514;stroke-linecap:round"
       d="m 185.85516,176.11852 v 21.64677 l 4.09452,1.09712 v 30.50718"
       id="path3505" />
    <path
       style="fill:none;stroke:#ff6600;stroke-width:2.514;stroke-linecap:round"
       d="m 210.57184,38.563089 v 8.579993 h -8.81614 v 24.401822 h 4.64422"
       id="path4677" />
    <path
       style="fill:none;stroke:#ff6600;stroke-width:2.514;stroke-linecap:round"
       d="M 201.7557,71.544904 V 83.824531 H 185.54029 V 115.94048"
       id="path4679" />
    <path
       style="fill:none;stroke:#ff6600;stroke-width:2.514;stroke-linecap:round"
       d="M 185.54029,83.824531 V 59.343993 h 4.40808 V 29.589515"
       id="path4681" />
    <path
       style="fill:none;stroke:#ff6600;stroke-width:2.514;stroke-linecap:round"
       d="m 201.7557,83.824531 h 6.21853 v 27.865309"
       id="path4683" />
    <path
       style="fill:none;stroke:#ff6600;stroke-width:2.514;stroke-linecap:round"
       d="m 174.83498,112.71314 v -8.65871 l 4.50636,-1.20748 V 79.888754 h -2.34168"
       id="path6352" />
    <path
       style="fill:none;stroke:#ff6600;stroke-width:2.514;stroke-linecap:round"
       d="M 179.34134,79.888754 V 61.075736 l -4.19343,-1.123627 V 29.628872"
       id="path6354" />
    <path
       style="fill:none;stroke:#ff6600;stroke-width:2.514;stroke-linecap:round"
       d="m 306.76224,155.29825 v 18.02586 h 8.02899 v 10.15431 h -3.30605 v 12.27962 h -7.47798 v 19.60018"
       id="path7561" />
    <path
       style="fill:none;stroke:#ff6600;stroke-width:2.514;stroke-linecap:round"
       d="m 295.82078,137.74468 v 46.99319 h 6.21853"
       id="path7563" />
    <path
       style="fill:none;stroke:#ff6600;stroke-width:2.514;stroke-linecap:round"
       d="m 295.82078,184.73787 v 36.13044 l -3.01821,1.74256 v 22.10825"
       id="path7565" />
    <path
       style="fill:none;stroke:#ff6600;stroke-width:2.514;stroke-linecap:round"
       d="m 288.65767,137.74468 v 34.08384 h -6.13982 v 4.09321"
       id="path7567" />
    <path
       style="fill:none;stroke:#ff6600;stroke-width:2.514;stroke-linecap:round"
       d="m 276.61419,194.41988 h -3.85707 v 21.80421 l 5.28401,1.41584 v 27.1579"
       id="path7571" />
    <path
       style="fill:none;stroke:#ff6600;stroke-width:2.514;stroke-linecap:round"
       d="m 268.90006,137.50854 v 9.68201 l -2.80136,0.75062 v 22.94276 h -7.35294 v 26.99943 h 8.02898 v 24.00825 l 4.46174,1.19552 v 21.23841"
       id="path7573" />
    <path
       style="fill:none;stroke:#ff6600;stroke-width:2.514;stroke-linecap:round"
       d="m 258.74576,197.88336 v 24.63797 h -2.67633 v 21.48935"
       id="path7575" />
    <path
       style="fill:none;stroke:#ff6600;stroke-width:2.514;stroke-linecap:round"
       d="m 258.74576,170.88393 -3.30106,-0.88452 v -21.78556 l -2.37924,-1.37366 v -36.17366 h 4.81443 V 55.408215"
       id="path7577" />
    <path
       style="fill:none;stroke:#ff6600;stroke-width:2.514;stroke-linecap:round"
       d="m 248.78824,194.7741 3.79802,3.79803 v 18.04554 h -4.15224 v 28.21952"
       id="path9904" />
    <path
       style="fill:none;stroke:#ff6600;stroke-width:2.514;stroke-linecap:round"
       d="m 237.01697,174.97331 h -3.7849 v -37.18108"
       id="path9972" />
    <path
       style="fill:none;stroke:#ff6600;stroke-width:2.514;stroke-linecap:round"
       d="m 244.97639,137.1243 v 15.86319 l 3.72571,2.15104 v 30.18759 h -13.02098 v 29.05468 l 5.27201,3.0438 v 27.34672"
       id="path9976" />
    <path
       style="fill:none;stroke:#ff6600;stroke-width:2.514;stroke-linecap:round"
       d="m 305.5348,30.033886 v 27.273548 l 3.87551,1.038439 v 26.958692 h 4.30655"
       id="path9978" />
    <path
       style="fill:none;stroke:#ff6600;stroke-width:2.514;stroke-linecap:round"
       d="m 309.41031,85.304563 v 2.115092 h -15.45285 v 16.364125 l 4.14908,1.11175 v 16.47691"
       id="path9980" />
    <path
       style="fill:none;stroke:#ff6600;stroke-width:2.514;stroke-linecap:round"
       d="m 298.07632,29.922565 v 26.716944 l -3.17483,1.832989 v 18.705663 h 3.06351"
       id="path9982" />
    <path
       style="fill:none;stroke:#ff6600;stroke-width:2.514;stroke-linecap:round"
       d="m 294.90149,77.178161 v 2.560373 h -7.34497 v 31.002786 l 2.67862,1.5465 v 8.9733"
       id="path9984" />
    <path
       style="fill:none;stroke:#ff6600;stroke-width:2.514;stroke-linecap:round"
       d="m 276.31314,137.40261 v 16.30846 l -3.79947,1.01807 v 26.47812 h -2.87977"
       id="path10684" />
    <path
       style="fill:none;stroke:#ff6600;stroke-width:2.514;stroke-linecap:round"
       d="m 272.51367,181.20726 v 2.72736 h 15.82209 v 31.05844 l -2.9661,1.71248 v 27.11956"
       id="path10752" />
    <path
       style="fill:none;stroke:#ff6600;stroke-width:2.514;stroke-linecap:round"
       d="m 233.73301,244.82699 v -22.04148 l -3.24714,-1.87474 v -22.11485 h -6.38209 v -62.00558 l -2.44906,-2.44905 V 79.828059 l 12.18961,0.01968 V 13.280135"
       id="path11166"
       sodipodi:nodetypes="cccccccccc" />
    <path
       style="fill:none;stroke:#ff6600;stroke-width:2.514;stroke-linecap:round"
       d="m 256.44241,36.880104 h -2.44905 V 13.725418 h -12.69055 v 62.339535"
       id="path11168" />
    <path
       style="fill:none;stroke:#ff6600;stroke-width:2.514;stroke-linecap:round"
       d="m 243.97451,87.642297 v 2.337731 h -18.03394 v 19.369782 l 3.38529,1.9545 v 13.85303"
       id="path11170" />
    <path
       style="fill:none;stroke:#ff6600;stroke-width:2.514;stroke-linecap:round"
       d="M 287.55652,79.738534 V 58.163261 L 283.4701,55.803966 V 29.86502"
       id="path12201"
       sodipodi:nodetypes="cccc" />
    <path
       style="fill:none;stroke:#ff6600;stroke-width:2.514;stroke-linecap:round"
       d="m 287.47693,87.051868 h -7.71412 v 23.850812 l -3.96995,1.06374 v 9.09057"
       id="path12293" />
    <path
       style="fill:none;stroke:#ff6600;stroke-width:2.514;stroke-linecap:round"
       d="m 276.53547,29.904377 v 26.01549 l -4.66572,1.250177 v 27.402284 h -3.00904"
       id="path12469" />
    <path
       style="fill:none;stroke:#ff6600;stroke-width:2.514;stroke-linecap:round"
       d="m 271.86975,84.572326 v 19.049164 l -3.61412,0.9684 v 16.27031"
       id="path12471" />
  </g>
  <g
     inkscape:groupmode="layer"
     id="layer6"
     inkscape:label="via_power"
     style="display:inline"
     transform="translate(-161.37462,-0.7009076)">
    <circle
       style="display:inline;fill:#ff0000;stroke:none;stroke-width:2.514;stroke-linecap:round"
       id="path91752-48-9-2-7-6-5-2-0-8"
       cx="211.75258"
       cy="24.945297"
       r="2.0859621" />
    <circle
       style="display:inline;fill:#ff0000;stroke:none;stroke-width:2.514;stroke-linecap:round"
       id="path91752-48-9-2-7-6-5-2-0-8-5"
       cx="268.74261"
       cy="30.455387"
       r="2.0859621" />
    <circle
       style="display:inline;fill:#ff0000;stroke:none;stroke-width:2.514;stroke-linecap:round"
       id="path91752-48-9-2-7-6-5-2-0-8-5-8"
       cx="227.38774"
       cy="20.905598"
       r="2.0859621" />
    <circle
       style="display:inline;fill:#ff0000;stroke:none;stroke-width:2.514;stroke-linecap:round"
       id="path91752-48-9-2-7-6-5-2-0-8-5-7"
       cx="227.38774"
       cy="29.087662"
       r="2.0859621" />
    <circle
       style="display:inline;fill:#ff0000;stroke:none;stroke-width:2.514;stroke-linecap:round"
       id="path91752-48-9-2-7-6-5-2-0-8-5-3"
       cx="227.38774"
       cy="37.102745"
       r="2.0859621" />
    <circle
       style="display:inline;fill:#ff0000;stroke:none;stroke-width:2.514;stroke-linecap:round"
       id="path91752-48-9-2-7-6-5-2-0-8-0"
       cx="291.01913"
       cy="30.691534"
       r="2.0859621" />
    <circle
       style="display:inline;fill:#ff0000;stroke:none;stroke-width:2.514;stroke-linecap:round"
       id="path91752-48-9-2-7-6-5-2-0-8-7"
       cx="312.82336"
       cy="30.770248"
       r="2.0859621" />
    <circle
       style="display:inline;fill:#ff0000;stroke:none;stroke-width:2.514;stroke-linecap:round"
       id="path91752-48-9-2-7-6-5-2-0-8-3"
       cx="182.80383"
       cy="36.935764"
       r="2.0859621" />
    <circle
       style="display:inline;fill:#ff0000;stroke:none;stroke-width:2.514;stroke-linecap:round"
       id="path91752-48-9-2-7-6-5-2-0-4"
       cx="209.29814"
       cy="226.06947"
       r="2.0859621" />
    <circle
       style="display:inline;fill:#ff0000;stroke:none;stroke-width:2.514;stroke-linecap:round"
       id="path91752-48-9-2-7-6-5-2-0-4-9"
       cx="181.76195"
       cy="222.63942"
       r="2.0859621" />
    <circle
       style="display:inline;fill:#ff0000;stroke:none;stroke-width:2.514;stroke-linecap:round"
       id="path91752-48-9-2-7-6-5-2-0-59"
       cx="209.29813"
       cy="233.97322"
       r="2.0859621" />
    <circle
       style="display:inline;fill:#ff0000;stroke:none;stroke-width:2.514;stroke-linecap:round"
       id="path91752-48-9-2-7-6-5-2-0-52"
       cx="209.29813"
       cy="241.70999"
       r="2.0859621" />
    <circle
       style="display:inline;fill:#ff0000;stroke:none;stroke-width:2.514;stroke-linecap:round"
       id="path91752-48-9-2-7-6-5-2-0-59-5"
       cx="224.97679"
       cy="231.09"
       r="2.0859621" />
    <circle
       style="display:inline;fill:#ff0000;stroke:none;stroke-width:2.514;stroke-linecap:round"
       id="path91752-48-9-2-7-6-5-2-0-52-6"
       cx="224.97679"
       cy="238.82677"
       r="2.0859621" />
    <circle
       style="display:inline;fill:#ff0000;stroke:none;stroke-width:2.514;stroke-linecap:round"
       id="path91752-48-9-2-7-6-5-2-0-59-1"
       cx="263.70483"
       cy="231.01129"
       r="2.0859621" />
    <circle
       style="display:inline;fill:#ff0000;stroke:none;stroke-width:2.514;stroke-linecap:round"
       id="path91752-48-9-2-7-6-5-2-0-52-0"
       cx="263.70483"
       cy="238.74806"
       r="2.0859621" />
    <circle
       style="display:inline;fill:#000000;stroke:none;stroke-width:2.514;stroke-linecap:round"
       id="path91752-48-9-3-2-7-3-0-1-1-81"
       cx="213.8779"
       cy="120.19112"
       r="2.0859621" />
    <circle
       style="display:inline;fill:#000000;stroke:none;stroke-width:2.514;stroke-linecap:round"
       id="path91752-48-9-3-2-7-3-0-1-1-81-2"
       cx="176.6848"
       cy="122.9068"
       r="2.0859621" />
    <circle
       style="display:inline;fill:#000000;stroke:none;stroke-width:2.514;stroke-linecap:round"
       id="path91752-48-9-3-2-7-3-0-1-1-81-2-4"
       cx="176.64545"
       cy="131.01451"
       r="2.0859621" />
    <circle
       style="display:inline;fill:#000000;stroke:none;stroke-width:2.514;stroke-linecap:round"
       id="path91752-48-9-3-2-7-3-0-1-1-81-2-1"
       cx="184.65474"
       cy="122.90679"
       r="2.0859621" />
    <circle
       style="display:inline;fill:#000000;stroke:none;stroke-width:2.514;stroke-linecap:round"
       id="path91752-48-9-3-2-7-3-0-1-1-81-2-4-8"
       cx="184.61539"
       cy="131.01451"
       r="2.0859621" />
    <circle
       style="display:inline;fill:#000000;stroke:none;stroke-width:2.514;stroke-linecap:round"
       id="path91752-48-9-3-2-7-3-0-1-1-81-2-7"
       cx="193.07732"
       cy="122.94616"
       r="2.0859621" />
    <circle
       style="display:inline;fill:#000000;stroke:none;stroke-width:2.514;stroke-linecap:round"
       id="path91752-48-9-3-2-7-3-0-1-1-81-2-4-2"
       cx="193.03796"
       cy="131.05386"
       r="2.0859621" />
    <circle
       style="display:inline;fill:#000000;stroke:none;stroke-width:2.514;stroke-linecap:round"
       id="path91752-48-9-3-2-7-3-0-1-1-8"
       cx="213.16946"
       cy="138.2957"
       r="2.0859621" />
    <circle
       style="display:inline;fill:#000000;stroke:none;stroke-width:2.514;stroke-linecap:round"
       id="path91752-48-9-3-2-7-3-0-1-1-8-1"
       cx="261.0285"
       cy="139.08284"
       r="2.0859621" />
    <circle
       style="display:inline;fill:#000000;stroke:none;stroke-width:2.514;stroke-linecap:round"
       id="path91752-48-9-3-2-7-3-0-1-1-8-2"
       cx="261.0285"
       cy="130.89642"
       r="2.0859621" />
    <circle
       style="display:inline;fill:#000000;stroke:none;stroke-width:2.514;stroke-linecap:round"
       id="path91752-48-9-3-2-7-3-0-1-1-8-2-1"
       cx="282.65842"
       cy="121.37245"
       r="2.0859621" />
    <circle
       style="display:inline;fill:#000000;stroke:none;stroke-width:2.514;stroke-linecap:round"
       id="path91752-48-9-3-2-7-3-0-1-1-8-9"
       cx="181.96893"
       cy="147.97806"
       r="2.0859621" />
    <circle
       style="display:inline;fill:#ff0000;stroke:none;stroke-width:2.514;stroke-linecap:round"
       id="path91752-48-9-2-7-6-5-2-0-5"
       cx="1059.0361"
       cy="231.88597"
       r="2.0859621" />
    <circle
       style="display:inline;fill:#ff0000;stroke:none;stroke-width:2.514;stroke-linecap:round"
       id="path91752-48-9-2-7-6-5-2-0-5-0"
       cx="1065.5802"
       cy="38.16951"
       r="2.0859621" />
    <circle
       style="display:inline;fill:#000000;stroke:none;stroke-width:2.514;stroke-linecap:round"
       id="path91752-48-9-3-2-7-3-0-1-1-7"
       cx="1064.1569"
       cy="146.67004"
       r="2.0859621" />
    <circle
       style="display:inline;fill:#ff0000;stroke:none;stroke-width:2.514;stroke-linecap:round"
       id="path91752-48-9-2-7-6-5-2-0-9"
       cx="1058.9805"
       cy="239.62274"
       r="2.0859621" />
    <circle
       style="display:inline;fill:#000000;stroke:none;stroke-width:2.514;stroke-linecap:round"
       id="path91752-48-9-3-2-7-3-0-1-1-8-3"
       cx="304.16464"
       cy="143.35533"
       r="2.0859621" />
    <circle
       style="display:inline;fill:#ff0000;stroke:none;stroke-width:2.514;stroke-linecap:round"
       id="path91752-48-9-2-7-6-5-2-0-52-7"
       cx="299.36298"
       cy="239.22035"
       r="2.0859621" />
  </g>
  <g
     inkscape:groupmode="layer"
     id="layer7"
     inkscape:label="M1"
     style="display:inline;opacity:0.724382"
     transform="translate(-161.37462,-0.7009076)">
    <path
       style="fill:#00ffff;stroke:none;stroke-width:2.514;stroke-linecap:round"
       d="m 1081.7956,114.83846 v -7.5567 h -3.8571 V 72.804352 h 3.9358 v -7.556693 h -4.0932 V 45.647488 H 326.04755 v 28.022737 h -32.11594 v 7.714123 h 7.87155 v -3.699632 h 37.38989 v 4.014494 h 8.34385 v -8.265133 h -17.08127 v -24.40182 h 209.14721 v 24.559252 h -31.56492 v 7.714123 h 8.18642 v -4.25064 h 35.26456 v 4.644218 h 9.44587 V 73.591509 H 544.4045 v -24.24439 h 209.85564 v 24.40182 h -32.74565 v 7.792841 h 8.26513 v -3.699631 h 37.07503 v 3.384767 h 8.57999 V 73.827655 H 758.82566 V 49.347119 H 968.6813 v 24.795398 h -33.13924 v 7.950271 h 8.02899 v -4.171923 h 37.54731 v 3.857061 h 7.95028 v -7.871555 h -15.7431 V 49.347119 H 1073.5304 V 114.7991 Z"
       id="path1496" />
    <path
       style="fill:#00ffff;stroke:none;stroke-width:2.514;stroke-linecap:round"
       d="m 1071.1422,159.49975 v 8.1264 h 6.6236 v -3.61792 h 1.8368 v 6.84621 h -4.4528 v 9.01698 h 2.7273 v 25.88203 h -3.4509 v 7.5698 h 8.0707 v -53.85134 z"
       id="path1611" />
    <rect
       style="fill:#00ffff;stroke:none;stroke-width:2.514;stroke-linecap:round"
       id="rect1809"
       width="11.13825"
       height="18.852373"
       x="1063.6123"
       y="183.43906" />
    <path
       style="fill:#00ffff;stroke:none;stroke-width:2.514;stroke-linecap:round"
       d="m 209.31239,171.12008 v 6.76953 h -1.81046 v 10.54789 h 5.58881 v 13.30293 H 182.5491 v -28.73118 h -11.17761 v 7.47798 h 6.61211 v 25.34641 h 39.12163 v -17.23871 h 1.18073 v -10.94146 h -1.25945 v -6.61211 z"
       id="path2247" />
    <path
       style="fill:#00ffff;stroke:none;stroke-width:2.514;stroke-linecap:round"
       d="m 164.4916,158.33088 v 55.32634 h 69.68669 v 4.8981 h 63.45274 v 13.69244 h 23.26601 v -4.17452 h -17.97828 v -13.02452 h -29.11033 v -16.2528 h 6.62357 v -3.7849 h 2.56038 v -17.03206 h 4.3415 v -6.90187 h -8.29339 v 20.26035 h -9.01696 v 23.59996 h -32.116 v -16.30846 h 15.1396 v -7.56981 h -6.01131 v -16.47544 h -5.89999 v -3.56226 h -9.01697 v 7.62546 h 10.90942 V 195.178 h -8.90565 v 14.08205 h -65.67915 v -15.52922 h 6.67923 v -6.4566 h -6.84621 v -21.20657 h 6.95753 v -7.73678 z"
       id="path2399" />
    <path
       style="fill:#00ffff;stroke:none;stroke-width:2.514;stroke-linecap:round"
       d="m 200.45689,158.80109 v 13.26357 h -6.41532 v 9.68202 h 6.17917 v 17.47485 h 8.93422 v -9.17036 h -4.32935 v -22.82751 h 4.01449 v -8.34385 z"
       id="path3300" />
    <path
       style="fill:#00ffff;stroke:none;stroke-width:2.514;stroke-linecap:round"
       d="m 178.53461,55.801794 v 20.387328 h -6.13981 v 7.871555 h 9.83944 V 59.580139 h 18.97045 v 3.857064 H 211.359 v 28.809891 h -14.1688 v 8.894856 h 9.131 v -4.329354 h 9.28844 V 55.723077 Z"
       id="path4426" />
    <path
       style="fill:#00ffff;stroke:none;stroke-width:2.514;stroke-linecap:round"
       d="m 200.39249,68.105532 v 6.512253 h -3.56226 v 11.02074 h 10.40848 V 74.729106 h 2.129 v -6.637491 z"
       id="path5374" />
    <path
       style="fill:#00ffff;stroke:none;stroke-width:2.514;stroke-linecap:round"
       d="m 164.68067,44.860331 v 55.022173 h 10.6266 V 92.48324 h -7.00568 V 71.151326 h 7.32054 V 64.066927 H 168.3803 V 48.559963 h 88.39757 v -7.792839 h 63.60216 v -3.778348 h -60.05996 v -3.699629 h -7.87156 v 11.492471 z"
       id="path6134" />
    <path
       style="fill:#00ffff;stroke:none;stroke-width:2.514;stroke-linecap:round"
       d="m 188.92647,64.26497 v 49.81597 h 132.08189 v -4.0632 H 243.52922 V 91.204557 h 4.56415 v -7.0132 h -8.68301 v 25.826383 h -42.3776 v -4.23157 h -3.62091 V 71.62362 h 3.93578 v -7.330818 z"
       id="path6893" />
    <path
       style="fill:#00ffff;stroke:none;stroke-width:2.514;stroke-linecap:round"
       d="m 311.60177,171.18841 v 6.79055 h -2.11509 v 10.46414 h 10.35282 v -10.40848 h -1.61415 c 0,0 0.0269,-6.83391 0,-6.81838 -0.0269,0.0155 -6.62358,-0.0278 -6.62358,-0.0278 z"
       id="path7976" />
    <path
       style="display:inline;fill:#00ffff;stroke:none;stroke-width:2.514;stroke-linecap:round"
       d="m 309.8763,159.49975 v 3.11697 h -6.95754 v 17.42168 h -5.34339 v 10.01885 h 5.06509 v 21.93016 h 11.63301 v -9.12829 h -7.79245 v -36.90278 h 10.90942 v -6.45659 z"
       id="path9172" />
    <path
       style="display:inline;opacity:1;fill:#00ffff;stroke:none;stroke-width:2.514;stroke-linecap:round"
       d="M 188.68892,151.44119 H 321.7182 v 3.5422 h -48.01649 v 30.22677 h -7.0844 v -7.32055 h 3.30606 V 154.70788 H 230.0933 v 29.24283 h 10.1543 v 8.26513 h -9.131 v -4.95908 h -5.66752 V 154.6573 l -32.43081,0.0506 v 3.73899 h 4.72293 v 7.91091 h -4.64421 v 20.34798 h 4.29 v 7.67476 l -8.69807,-0.003 z"
       id="path9603" />
    <path
       style="fill:#00ffff;stroke:none;stroke-width:2.514;stroke-linecap:round"
       d="m 253.82638,52.464988 v 7.124517 h 9.29527 v -2.282071 h 22.9877 v 39.073529 h 9.68489 v 4.007547 h 8.62735 v -7.124524 h -15.36224 v -24.21223 h 16.41979 v -7.903762 h -7.0132 v 3.840561 h -9.40659 V 53.522533 h -25.9377 V 51.40744 h -9.30223 z"
       id="path10165" />
    <path
       style="fill:#00ffff;stroke:none;stroke-width:2.514;stroke-linecap:round"
       d="m 307.43133,81.620494 v 8.265133 h 3.30605 v 17.396133 h 7.98963 v -9.249072 h -1.92853 V 81.640174 Z"
       id="path10354" />
    <path
       style="fill:#00ffff;stroke:none;stroke-width:2.514;stroke-linecap:round"
       d="m 237.35093,158.9988 v 7.45848 h 18.70186 v 36.84712 h -14.47168 v 8.18206 h 8.40471 v -3.72923 h 10.29715 v -45.41881 h -14.52733 v -3.39528 z"
       id="path12018" />
    <path
       style="fill:#00ffff;stroke:none;stroke-width:2.514;stroke-linecap:round"
       d="m 277.14804,158.88748 v 7.40282 h 13.13584 v 37.23674 h -12.80187 v 7.62546 h 7.73678 v -3.39527 h 8.68301 v -45.14051 h -8.51603 v -3.81563 z"
       id="path12020" />
    <path
       style="fill:#00ffff;stroke:none;stroke-width:2.514;stroke-linecap:round"
       d="m 219.11248,62.217111 v 10.587241 h 1.88917 v 27.353658 h 7.32055 v 3.46348 h 7.39926 V 95.907367 H 224.42578 V 72.804352 h 5.54944 v -1.102016 h 22.78815 v -7.320547 h -7.67476 v 3.542199 h -15.11339 v -5.66752 z"
       id="path12708" />
    <path
       style="fill:#00ffff;stroke:none;stroke-width:2.514;stroke-linecap:round"
       d="m 251.42521,86.185996 v 12.633846 h -5.5888 v 8.147058 h 8.46192 V 89.373976 h 19.0098 v -8.619352 h -7.87155 v 5.549447 z"
       id="path12858" />
    <path
       style="fill:#00ffff;stroke:none;stroke-width:2.514;stroke-linecap:round"
       d="m 228.22264,76.510236 v 8.070744 h 7.87593 v -3.200466 h 25.71506 v -3.061316 h 17.31036 V 92.930026 H 261.2292 v 8.293384 h 8.62734 v -3.617919 h 13.4698 V 61.426296 h -8.07074 v 8.070744 h 3.95188 v 3.95188 h -22.37544 v 3.061316 z"
       id="path13284" />
  </g>
  <g
     inkscape:groupmode="layer"
     id="layer3"
     inkscape:label="via_M1"
     style="display:inline"
     transform="translate(-161.37462,-0.7009076)">
    <circle
       style="display:inline;fill:#008000;stroke:none;stroke-width:2.514;stroke-linecap:round"
       id="path91752-7-59-22-1-10-3-1"
       cx="177.27516"
       cy="80.124901"
       r="2.0859621" />
    <circle
       style="display:inline;fill:#008000;stroke:none;stroke-width:2.514;stroke-linecap:round"
       id="path91752-7-59-22-1-10-3-23"
       cx="210.41441"
       cy="59.42271"
       r="2.0859621" />
    <circle
       style="display:inline;fill:#008000;stroke:none;stroke-width:2.514;stroke-linecap:round"
       id="path91752-7-59-22-1-10-3-23-8"
       cx="171.45021"
       cy="67.609131"
       r="2.0859621" />
    <circle
       style="display:inline;fill:#008000;stroke:none;stroke-width:2.514;stroke-linecap:round"
       id="path91752-7-59-22-1-10-3-23-1"
       cx="170.97792"
       cy="96.419022"
       r="2.0859621" />
    <circle
       style="display:inline;fill:#008000;stroke:none;stroke-width:2.514;stroke-linecap:round"
       id="path91752-7-59-22-1-10-3-23-5"
       cx="206.47864"
       cy="71.466187"
       r="2.0859621" />
    <circle
       style="display:inline;fill:#008000;stroke:none;stroke-width:2.514;stroke-linecap:round"
       id="path91752-7-59-22-1-10-3-23-7"
       cx="202.38542"
       cy="96.655167"
       r="2.0859621" />
    <circle
       style="display:inline;fill:#008000;stroke:none;stroke-width:2.514;stroke-linecap:round"
       id="path91752-7-59-22-1-10-3-23-7-4"
       cx="192.82269"
       cy="109.73943"
       r="2.0859621" />
    <circle
       style="display:inline;fill:#008000;stroke:none;stroke-width:2.514;stroke-linecap:round"
       id="path91752-7-59-22-1-10-3-23-7-40"
       cx="192.87836"
       cy="67.27063"
       r="2.0859621" />
    <circle
       style="display:inline;fill:#008000;stroke:none;stroke-width:2.514;stroke-linecap:round"
       id="path91752-7-59-22-1-10-3-23-7-40-5"
       cx="244.08583"
       cy="87.753616"
       r="2.0859621" />
    <circle
       style="display:inline;fill:#008000;stroke:none;stroke-width:2.514;stroke-linecap:round"
       id="path91752-7-59-22-1-10-3-23-7-40-5-6"
       cx="258.58832"
       cy="55.408218"
       r="2.0859621" />
    <circle
       style="display:inline;fill:#008000;stroke:none;stroke-width:2.514;stroke-linecap:round"
       id="path91752-7-59-22-1-10-3-23-7-40-5-6-6"
       cx="249.06375"
       cy="68.081421"
       r="2.0859621" />
    <circle
       style="display:inline;fill:#008000;stroke:none;stroke-width:2.514;stroke-linecap:round"
       id="path91752-7-59-22-1-10-3-23-7-40-5-6-6-8"
       cx="232.0415"
       cy="79.849396"
       r="2.0859621" />
    <circle
       style="display:inline;fill:#008000;stroke:none;stroke-width:2.514;stroke-linecap:round"
       id="path91752-7-59-22-1-10-3-23-7-40-5-6-3"
       cx="232.06119"
       cy="99.567642"
       r="2.0859621" />
    <circle
       style="display:inline;fill:#008000;stroke:none;stroke-width:2.514;stroke-linecap:round"
       id="path91752-7-59-22-1-10-3-23-7-40-5-0"
       cx="301.88187"
       cy="65.40509"
       r="2.0859621" />
    <circle
       style="display:inline;fill:#008000;stroke:none;stroke-width:2.514;stroke-linecap:round"
       id="path91752-7-59-22-1-10-3-23-7-40-5-62"
       cx="298.18225"
       cy="77.52729"
       r="2.0859621" />
    <circle
       style="display:inline;fill:#008000;stroke:none;stroke-width:2.514;stroke-linecap:round"
       id="path91752-7-59-22-1-10-3-23-7-40-5-1"
       cx="299.99274"
       cy="96.733879"
       r="2.0859621" />
    <circle
       style="display:inline;fill:#008000;stroke:none;stroke-width:2.514;stroke-linecap:round"
       id="path91752-7-59-22-1-10-3-23-7-40-5-1-4"
       cx="265.20041"
       cy="96.891312"
       r="2.0859621" />
    <circle
       style="display:inline;fill:#008000;stroke:none;stroke-width:2.514;stroke-linecap:round"
       id="path91752-7-59-22-1-10-3-23-7-40-5-1-5"
       cx="249.77219"
       cy="102.79499"
       r="2.0859621" />
    <circle
       style="display:inline;fill:#008000;stroke:none;stroke-width:2.514;stroke-linecap:round"
       id="path91752-7-59-22-1-10-3-21"
       cx="212.9333"
       cy="174.97714"
       r="2.0859621" />
    <circle
       style="display:inline;fill:#008000;stroke:none;stroke-width:2.514;stroke-linecap:round"
       id="path91752-7-59-22-1-10-3-21-7"
       cx="314.79123"
       cy="174.66229"
       r="2.0859621" />
    <circle
       style="display:inline;fill:#008000;stroke:none;stroke-width:2.514;stroke-linecap:round"
       id="path91752-7-59-22-1-10-3-21-7-5"
       cx="313.6105"
       cy="162.77623"
       r="2.0859621" />
    <circle
       style="display:inline;fill:#008000;stroke:none;stroke-width:2.514;stroke-linecap:round"
       id="path91752-7-59-22-1-10-3-21-7-8"
       cx="309.67471"
       cy="207.64409"
       r="2.0859621" />
    <circle
       style="display:inline;fill:#008000;stroke:none;stroke-width:2.514;stroke-linecap:round"
       id="path91752-7-59-22-1-10-3-21-7-8-4"
       cx="245.44283"
       cy="206.93565"
       r="2.0859621" />
    <circle
       style="display:inline;fill:#008000;stroke:none;stroke-width:2.514;stroke-linecap:round"
       id="path91752-7-59-22-1-10-3-21-7-8-8"
       cx="281.41583"
       cy="207.09309"
       r="2.0859621" />
    <circle
       style="display:inline;fill:#008000;stroke:none;stroke-width:2.514;stroke-linecap:round"
       id="path91752-7-59-22-1-10-3-21-7-1"
       cx="301.56702"
       cy="184.97401"
       r="2.0859621" />
    <circle
       style="display:inline;fill:#008000;stroke:none;stroke-width:2.514;stroke-linecap:round"
       id="path91752-7-59-22-1-10-3-21-7-1-7"
       cx="282.88104"
       cy="174.862"
       r="2.0859621" />
    <circle
       style="display:inline;fill:#008000;stroke:none;stroke-width:2.514;stroke-linecap:round"
       id="path91752-7-59-22-1-10-3-21-7-1-6"
       cx="276.48013"
       cy="194.78838"
       r="2.0859621" />
    <circle
       style="display:inline;fill:#008000;stroke:none;stroke-width:2.514;stroke-linecap:round"
       id="path91752-7-59-22-1-10-3-21-7-1-1"
       cx="270.13486"
       cy="181.37424"
       r="2.0859621" />
    <circle
       style="display:inline;fill:#008000;stroke:none;stroke-width:2.514;stroke-linecap:round"
       id="path91752-7-59-22-1-10-3-21-7-1-0"
       cx="235.68112"
       cy="188.05348"
       r="2.0859621" />
    <circle
       style="display:inline;fill:#008000;stroke:none;stroke-width:2.514;stroke-linecap:round"
       id="path91752-7-59-22-1-10-3-21-7-1-09"
       cx="236.46037"
       cy="174.80634"
       r="2.0859621" />
    <circle
       style="display:inline;fill:#008000;stroke:none;stroke-width:2.514;stroke-linecap:round"
       id="path91752-7-59-22-1-10-3-21-7-1-09-2"
       cx="241.19218"
       cy="162.46136"
       r="2.0859621" />
    <circle
       style="display:inline;fill:#008000;stroke:none;stroke-width:2.514;stroke-linecap:round"
       id="path91752-7-59-22-1-10-3-21-7-1-09-7"
       cx="281.33713"
       cy="162.6188"
       r="2.0859621" />
    <circle
       style="display:inline;fill:#008000;stroke:none;stroke-width:2.514;stroke-linecap:round"
       id="path91752-7-59-22-1-10-3-21-7-1-75"
       cx="249.09526"
       cy="194.6214"
       r="2.0859621" />
    <circle
       style="display:inline;fill:#008000;stroke:none;stroke-width:2.514;stroke-linecap:round"
       id="path91752-7-59-22-1-10-3-21-8"
       cx="206.00633"
       cy="194.81346"
       r="2.0859621" />
    <circle
       style="display:inline;fill:#008000;stroke:none;stroke-width:2.514;stroke-linecap:round"
       id="path91752-7-59-22-1-10-3-21-8-5"
       cx="198.05606"
       cy="176.86632"
       r="2.0859621" />
    <circle
       style="display:inline;fill:#008000;stroke:none;stroke-width:2.514;stroke-linecap:round"
       id="path91752-7-59-22-1-10-3-21-8-5-2"
       cx="193.54628"
       cy="162.44974"
       r="2.0859621" />
    <circle
       style="display:inline;fill:#008000;stroke:none;stroke-width:2.514;stroke-linecap:round"
       id="path91752-7-59-22-1-10-3-21-8-5-7"
       cx="193.101"
       cy="190.5582"
       r="2.0859621" />
    <circle
       style="display:inline;fill:#008000;stroke:none;stroke-width:2.514;stroke-linecap:round"
       id="path91752-7-59-22-1-10-3-21-4"
       cx="205.53404"
       cy="162.30394"
       r="2.0859621" />
    <circle
       style="display:inline;fill:#008000;stroke:none;stroke-width:2.514;stroke-linecap:round"
       id="path91752-7-59-22-1-10-3-9"
       cx="175.62213"
       cy="176.70888"
       r="2.0859621" />
    <circle
       style="display:inline;fill:#008000;stroke:none;stroke-width:2.514;stroke-linecap:round"
       id="path91752-7-59-22-1-10-3-9-1"
       cx="171.05663"
       cy="162.06779"
       r="2.0859621" />
    <circle
       style="display:inline;fill:#008000;stroke:none;stroke-width:2.514;stroke-linecap:round"
       id="path91752-7-59-22-1-10-3-9-8"
       cx="171.37149"
       cy="190.4841"
       r="2.0859621" />
    <circle
       style="display:inline;fill:#008000;stroke:none;stroke-width:2.514;stroke-linecap:round"
       id="path91752-7-59-22-1-10-3-8"
       cx="1074.5537"
       cy="163.40596"
       r="2.0859621" />
    <circle
       style="display:inline;fill:#008000;stroke:none;stroke-width:2.514;stroke-linecap:round"
       id="path91752-7-59-22-1-10-3-8-2"
       cx="1078.3224"
       cy="68.940437"
       r="2.0859621" />
    <circle
       style="display:inline;fill:#008000;stroke:none;stroke-width:2.514;stroke-linecap:round"
       id="path91752-7-59-22-1-10-3-8-0"
       cx="1078.1554"
       cy="110.85265"
       r="2.0859621" />
    <circle
       style="display:inline;fill:#008000;stroke:none;stroke-width:2.514;stroke-linecap:round"
       id="path91752-7-59-22-1-10-3-2"
       cx="1079.0405"
       cy="175.52815"
       r="2.0859621" />
    <circle
       style="display:inline;fill:#008000;stroke:none;stroke-width:2.514;stroke-linecap:round"
       id="path91752-7-59-22-1-10-3-4"
       cx="1078.5682"
       cy="209.2184"
       r="2.0859621" />
    <circle
       style="display:inline;fill:#008000;stroke:none;stroke-width:2.514;stroke-linecap:round"
       id="path91752-7-59-22-1-10-3-5"
       cx="1069.0437"
       cy="197.72594"
       r="2.0859621" />
    <circle
       style="display:inline;fill:#008000;stroke:none;stroke-width:2.514;stroke-linecap:round"
       id="path91752-7-59-22-1-10-3-23-7-40-5-8"
       cx="313.37436"
       cy="85.398842"
       r="2.0859621" />
    <circle
       style="display:inline;fill:#008000;stroke:none;stroke-width:2.514;stroke-linecap:round"
       id="path91752-7-59-22-1-10-3-23-7-40-5-8-0"
       cx="314.60742"
       cy="102.72624"
       r="2.0859621" />
    <circle
       style="display:inline;fill:#008000;stroke:none;stroke-width:2.514;stroke-linecap:round"
       id="path91752-7-59-22-1-10-3-23-7-40-5-1-3"
       cx="279.44794"
       cy="65.090233"
       r="2.0859621" />
    <circle
       style="display:inline;fill:#008000;stroke:none;stroke-width:2.514;stroke-linecap:round"
       id="path91752-7-59-22-1-10-3-23-7-40-5-1-40"
       cx="268.90005"
       cy="84.375542"
       r="2.0859621" />
  </g>
  <g
     inkscape:groupmode="layer"
     id="layer8"
     inkscape:label="ports"
     transform="translate(-161.37462,-0.7009076)"
     style="display:inline">
    <text
       xml:space="preserve"
       style="font-size:8.46667px;line-height:1.25;font-family:sans-serif;display:inline;stroke-width:0.264583"
       x="193.55412"
       y="83.124031"
       id="text97862-4"><tspan
         sodipodi:role="line"
         id="tspan97860-9"
         style="font-size:8.46667px;fill:#0000ff;stroke-width:0.264583"
         x="193.55412"
         y="83.124031">/OE</tspan></text>
    <text
       xml:space="preserve"
       style="font-size:8.46667px;line-height:1.25;font-family:sans-serif;display:inline;stroke-width:0.264583"
       x="221.53522"
       y="69.969902"
       id="text97862-4-2"><tspan
         sodipodi:role="line"
         id="tspan97860-9-5"
         style="font-size:8.46667px;fill:#0000ff;stroke-width:0.264583"
         x="221.53522"
         y="69.969902">Q</tspan></text>
    <text
       xml:space="preserve"
       style="font-size:8.46667px;line-height:1.25;font-family:sans-serif;display:inline;stroke-width:0.264583"
       x="204.50316"
       y="186.29993"
       id="text97862-4-5"><tspan
         sodipodi:role="line"
         id="tspan97860-9-8"
         style="font-size:8.46667px;fill:#0000ff;stroke-width:0.264583"
         x="204.50316"
         y="186.29993">CLK</tspan></text>
    <text
       xml:space="preserve"
       style="font-size:8.46667px;line-height:1.25;font-family:sans-serif;display:inline;stroke-width:0.264583"
       x="311.31256"
       y="186.24141"
       id="text97862-4-5-9"><tspan
         sodipodi:role="line"
         id="tspan97860-9-8-9"
         style="font-size:8.46667px;fill:#0000ff;stroke-width:0.264583"
         x="311.31256"
         y="186.24141">D</tspan></text>
    <text
       xml:space="preserve"
       style="font-size:8.46667px;line-height:1.25;font-family:sans-serif;display:inline;stroke-width:0.264583"
       x="1058.087"
       y="193.01094"
       id="text97862-1"><tspan
         sodipodi:role="line"
         id="tspan97860-3"
         style="font-size:8.46667px;fill:#0000ff;stroke-width:0.264583"
         x="1058.087"
         y="193.01094">/RST</tspan></text>
  </g>
</svg>
