<?xml version="1.0" encoding="UTF-8" standalone="no"?>
<!-- Created with Inkscape (http://www.inkscape.org/) -->

<svg
   width="168.80417mm"
   height="254mm"
   viewBox="0 0 168.80417 254"
   version="1.1"
   id="svg89640"
   inkscape:version="1.1.1 (3bf5ae0d25, 2021-09-20)"
   sodipodi:docname="R800_DFFPSRPL.svg"
   xmlns:inkscape="http://www.inkscape.org/namespaces/inkscape"
   xmlns:sodipodi="http://sodipodi.sourceforge.net/DTD/sodipodi-0.dtd"
   xmlns="http://www.w3.org/2000/svg"
   xmlns:svg="http://www.w3.org/2000/svg">
  <sodipodi:namedview
     id="namedview89642"
     pagecolor="#ffffff"
     bordercolor="#666666"
     borderopacity="1.0"
     inkscape:pageshadow="2"
     inkscape:pageopacity="0.0"
     inkscape:pagecheckerboard="0"
     inkscape:document-units="mm"
     showgrid="false"
     fit-margin-top="0"
     fit-margin-left="0"
     fit-margin-right="0"
     fit-margin-bottom="0"
     inkscape:zoom="1.1883844"
     inkscape:cx="181.75937"
     inkscape:cy="455.2399"
     inkscape:window-width="2560"
     inkscape:window-height="1494"
     inkscape:window-x="-11"
     inkscape:window-y="1609"
     inkscape:window-maximized="1"
     inkscape:current-layer="layer8" />
  <defs
     id="defs89637" />
  <g
     inkscape:groupmode="layer"
     id="layer4"
     inkscape:label="diff"
     style="display:inline;opacity:0.458333"
     transform="translate(-149.85539,-2.0934978)">
    <rect
       style="fill:#808000;stroke:none;stroke-width:2.514;stroke-linecap:round"
       id="rect4712"
       width="54.769733"
       height="27.607508"
       x="169.44781"
       y="93.153748" />
    <rect
       style="fill:#808000;stroke:none;stroke-width:2.514;stroke-linecap:round"
       id="rect4903"
       width="22.709406"
       height="25.269772"
       x="201.59201"
       y="136.23482" />
    <rect
       style="fill:#808000;stroke:none;stroke-width:2.514;stroke-linecap:round"
       id="rect5007"
       width="40.298058"
       height="36.735798"
       x="155.64406"
       y="205.3649" />
    <rect
       style="fill:#808000;stroke:none;stroke-width:2.514;stroke-linecap:round"
       id="rect5009"
       width="40.965977"
       height="26.605623"
       x="154.97614"
       y="132.44991" />
    <rect
       style="fill:#808000;stroke:none;stroke-width:2.514;stroke-linecap:round"
       id="rect5308"
       width="22.005127"
       height="54.956276"
       x="201.09921"
       y="187.21965" />
    <rect
       style="fill:#808000;stroke:none;stroke-width:2.514;stroke-linecap:round"
       id="rect5412"
       width="55.994259"
       height="36.401836"
       x="170.89499"
       y="15.340649" />
    <rect
       style="fill:#808000;stroke:none;stroke-width:2.514;stroke-linecap:round"
       id="rect7928"
       width="67.348961"
       height="35.956554"
       x="232.45528"
       y="15.67461" />
    <rect
       style="fill:#808000;stroke:none;stroke-width:2.514;stroke-linecap:round"
       id="rect8106"
       width="57.107468"
       height="36.735798"
       x="226.11"
       y="205.25359" />
    <path
       style="fill:#808000;stroke:none;stroke-width:2.514;stroke-linecap:round"
       d="m 285.16558,205.47623 v 19.14714 h 10.90941 v 13.35847 h 9.40659 v -13.69243 h 11.18772 v -18.81318 z"
       id="path8143" />
    <rect
       style="fill:#808000;stroke:none;stroke-width:2.514;stroke-linecap:round"
       id="rect8421"
       width="75.64563"
       height="28.416315"
       x="228.25607"
       y="92.638222" />
    <path
       style="fill:#808000;stroke:none;stroke-width:2.514;stroke-linecap:round"
       d="m 288.47347,141.57745 v 15.11338 h -3.69963 v 9.6033 h 30.30549 v -8.89486 h -6.92697 v -15.66439 z"
       id="path8719" />
    <path
       style="fill:#808000;stroke:none;stroke-width:2.514;stroke-linecap:round"
       d="m 229.35809,134.7292 v 18.97045 h -2.83376 v 10.23301 h 53.92016 v -21.8042 h 3.0699 v -7.63541 z"
       id="path9345" />
  </g>
  <g
     inkscape:groupmode="layer"
     id="layer2"
     inkscape:label="poly"
     style="display:inline"
     transform="translate(-149.85539,-2.0934978)">
    <path
       style="fill:none;stroke:#ff6600;stroke-width:2.514;stroke-linecap:round"
       d="m 174.7912,128.99898 v 16.92073 h 4.00755 v 14.69432 h -8.23773 v 29.38863 h -3.89622"
       id="path492" />
    <path
       style="fill:none;stroke:#ff6600;stroke-width:2.514;stroke-linecap:round"
       d="m 170.56102,190.00266 v 2.44906 h 4.50849 v 29.55562 l -4.37599,2.52647 v 19.7933"
       id="path494" />
    <path
       style="fill:none;stroke:#ff6600;stroke-width:2.514;stroke-linecap:round"
       d="m 161.32141,108.96127 h 2.6717 v 18.70186 h 2.78301 v 18.14526 h -3.45094 v 12.80187 h -4.8981 v 41.52258 h 8.79432 v 16.47545 l -4.79517,2.76849 v 24.95033"
       id="path496" />
    <path
       style="fill:none;stroke:#ff6600;stroke-width:2.514;stroke-linecap:round"
       d="m 213.75341,12.334993 v 18.479218 l 5.36762,1.438249 v 22.384358 l 3.99478,1.070401 v 25.08994 h -4.79825 v 25.715061 l -4.84338,3.68688 v 17.68667 h -22.54149 v 17.8113 h -6.12263 v 20.14902 l -2.76211,1.59471 v 46.16183 l 4.33105,4.33105 v 26.1708"
       id="path520"
       sodipodi:nodetypes="cccccccccccccccccc" />
    <circle
       style="display:inline;fill:#008000;stroke:none;stroke-width:2.514;stroke-linecap:round"
       id="path91752-7-4"
       cx="221.87982"
       cy="80.240555"
       r="2.0859621" />
    <path
       style="fill:none;stroke:#ff6600;stroke-width:2.514;stroke-linecap:round"
       d="m 194.04967,190.78191 h 5.34338 v -7.23584 h 13.24716 v 12.46791 48.6471"
       id="path635" />
    <path
       style="fill:none;stroke:#ff6600;stroke-width:2.514;stroke-linecap:round"
       d="m 212.64021,183.54607 h 10.24149 v -18.81318 h -9.46225 V 133.4518"
       id="path637" />
    <path
       style="fill:none;stroke:#ff6600;stroke-width:2.514;stroke-linecap:round"
       d="m 160.65349,65.768879 h 12.24526 v 18.924502 h 5.78867 v 22.041479 l -2.34465,1.35369 v 12.6727"
       id="path1750" />
    <path
       style="fill:none;stroke:#ff6600;stroke-width:2.514;stroke-linecap:round"
       d="m 172.89875,65.768879 v -11.02074 h 9.57358 V 36.714203 L 179.91195,34.15383 V 17.789702 12.557634"
       id="path1752" />
    <path
       style="fill:none;stroke:#ff6600;stroke-width:2.514;stroke-linecap:round"
       d="m 204.95909,85.027341 h 5.89999 v 18.256579 l -4.78226,2.76103 v 15.49555"
       id="path2118" />
    <path
       style="fill:none;stroke:#ff6600;stroke-width:2.514;stroke-linecap:round"
       d="M 206.85153,13.002916 V 37.71609 l 5.70704,1.529194 v 27.414158 7.792444 H 196.3874 v 46.754654"
       id="path2524" />
    <path
       style="fill:none;stroke:#ff6600;stroke-width:2.514;stroke-linecap:round"
       d="M 199.05909,12.557634 V 57.976437"
       id="path2774" />
    <path
       style="fill:none;stroke:#ff6600;stroke-width:2.514;stroke-linecap:round"
       d="m 193.04778,12.028467 v 50.650872 l -9.5649,2.562907 v 35.815264 h 6.11396 v 19.92639"
       id="path2933" />
    <path
       style="fill:none;stroke:#ff6600;stroke-width:2.514;stroke-linecap:round"
       d="m 240.69313,12.562666 v 25.661268 h 3.22734 v 21.017052 h -2.99119 v 45.025294 l -3.95291,1.05918 v 15.47108"
       id="path7754" />
    <path
       style="fill:none;stroke:#ff6600;stroke-width:2.514;stroke-linecap:round"
       d="m 254.62578,12.326519 v 19.44274 h -3.14862 V 144.72607 h -7.16311 v 45.89117 h -4.88036"
       id="path7756" />
    <path
       style="fill:none;stroke:#ff6600;stroke-width:2.514;stroke-linecap:round"
       d="m 244.31405,190.61724 v 32.66695 h 6.69082 v 21.72549"
       id="path7758" />
    <path
       style="fill:none;stroke:#ff6600;stroke-width:2.514;stroke-linecap:round"
       d="m 236.44249,134.49305 v 36.76016 h -3.22733 -1.81046 v 30.06934 h 5.51009 v 42.19154"
       id="path7760" />
    <path
       style="fill:none;stroke:#ff6600;stroke-width:2.514;stroke-linecap:round"
       d="M 262.49734,11.932941 V 38.14522 h -4.01449 v 20.623472 h 3.14862"
       id="path7762" />
    <path
       style="fill:none;stroke:#ff6600;stroke-width:2.514;stroke-linecap:round"
       d="m 269.18816,11.854226 v 25.976132 h 3.46349 v 35.736858 h -13.85394 v 77.928394 h -7.55669 v 20.7809 h 4.17192"
       id="path7764" />
    <path
       style="fill:none;stroke:#ff6600;stroke-width:2.514;stroke-linecap:round"
       d="m 262.18248,196.83576 h 2.99119 v 47.46548"
       id="path7766" />
    <path
       style="fill:none;stroke:#ff6600;stroke-width:2.514;stroke-linecap:round"
       d="m 270.29018,85.84684 h 2.36147 v 18.97045 h -7.32055 v 81.70674 h -13.30293 v 30.06934 h 6.37596 v 27.78659"
       id="path7768" />
    <path
       style="fill:none;stroke:#ff6600;stroke-width:2.514;stroke-linecap:round"
       d="m 272.49421,134.57177 v 62.815 h 4.25064"
       id="path7770" />
    <path
       style="fill:none;stroke:#ff6600;stroke-width:2.514;stroke-linecap:round"
       d="m 272.49421,197.38677 v 47.38676"
       id="path7772" />
    <path
       style="fill:none;stroke:#ff6600;stroke-width:2.514;stroke-linecap:round"
       d="m 276.50871,11.77551 v 19.442741 l 2.99288,0.801939 v 33.754187 h 3.06821"
       id="path7774" />
    <path
       style="fill:none;stroke:#ff6600;stroke-width:2.514;stroke-linecap:round"
       d="m 279.50159,65.774377 v 45.812453 l -2.74391,0.73522 v 9.26165"
       id="path7776" />
    <path
       style="fill:none;stroke:#ff6600;stroke-width:2.514;stroke-linecap:round"
       d="m 290.83494,11.539364 v 27.23558 l -3.1345,0.839883 v 15.060657 h 5.10239 v 34.634842 l -2.79789,1.615358 v 45.299106 h 24.36595 v 17.86843 h -10.78403 v 61.2407 l 5.16207,1.38317 v 7.5904"
       id="path7778" />
    <path
       style="fill:none;stroke:#ff6600;stroke-width:2.514;stroke-linecap:round"
       d="m 286.50558,153.69965 h 9.83945 v 17.2387 h -3.77835 v 25.89741 h 3.85706 v 19.28531 l -4.70701,1.26125 v 8.97178"
       id="path7780" />
    <path
       style="fill:none;stroke:#ff6600;stroke-width:2.514;stroke-linecap:round"
       d="m 304.03731,181.90165 h 8.34385"
       id="path9105" />
  </g>
  <g
     inkscape:groupmode="layer"
     id="layer6"
     inkscape:label="via_power"
     style="display:inline"
     transform="translate(-149.85539,-2.0934978)">
    <circle
       style="display:inline;fill:#000000;stroke:none;stroke-width:2.514;stroke-linecap:round"
       id="path91752-48-9-3-2-7-3"
       cx="180.24591"
       cy="137.23669"
       r="2.0859621" />
    <circle
       style="display:inline;fill:#000000;stroke:none;stroke-width:2.514;stroke-linecap:round"
       id="path91752-48-9-3-2-7-3-0"
       cx="183.36288"
       cy="117.67172"
       r="2.0859621" />
    <circle
       style="display:inline;fill:#000000;stroke:none;stroke-width:2.514;stroke-linecap:round"
       id="path91752-48-9-3-2-7-3-0-6"
       cx="219.98737"
       cy="117.86692"
       r="2.0859621" />
    <circle
       style="display:inline;fill:#000000;stroke:none;stroke-width:2.514;stroke-linecap:round"
       id="path91752-48-9-3-2-7-3-0-6-1"
       cx="243.84175"
       cy="118.27765"
       r="2.0859621" />
    <circle
       style="display:inline;fill:#000000;stroke:none;stroke-width:2.514;stroke-linecap:round"
       id="path91752-48-9-3-2-7-3-0-6-7"
       cx="284.22284"
       cy="118.0415"
       r="2.0859621" />
    <circle
       style="display:inline;fill:#000000;stroke:none;stroke-width:2.514;stroke-linecap:round"
       id="path91752-48-9-3-2-7-3-8"
       cx="220.09869"
       cy="140.79897"
       r="2.0859621" />
    <circle
       style="display:inline;fill:#000000;stroke:none;stroke-width:2.514;stroke-linecap:round"
       id="path91752-48-9-3-2-7-3-8-17"
       cx="244.0779"
       cy="137.56296"
       r="2.0859621" />
    <circle
       style="display:inline;fill:#000000;stroke:none;stroke-width:2.514;stroke-linecap:round"
       id="path91752-48-9-3-2-7-3-8-9"
       cx="280.0509"
       cy="137.48424"
       r="2.0859621" />
    <circle
       style="display:inline;fill:#000000;stroke:none;stroke-width:2.514;stroke-linecap:round"
       id="path91752-48-9-3-2-7-3-8-1"
       cx="295.95145"
       cy="145.11964"
       r="2.0859621" />
    <circle
       style="display:inline;fill:#000000;stroke:none;stroke-width:2.514;stroke-linecap:round"
       id="path91752-48-9-3-2-7-3-8-3"
       cx="304.21658"
       cy="145.27708"
       r="2.0859621" />
    <circle
       style="display:inline;fill:#000000;stroke:none;stroke-width:2.514;stroke-linecap:round"
       id="path91752-48-9-3-2-7-2"
       cx="159.76292"
       cy="135.78954"
       r="2.0859621" />
    <circle
       style="display:inline;fill:#ff0000;stroke:none;stroke-width:2.514;stroke-linecap:round"
       id="path91752-48-9-2-7-6-5-2"
       cx="187.8253"
       cy="18.45178"
       r="2.0859621" />
    <circle
       style="display:inline;fill:#ff0000;stroke:none;stroke-width:2.514;stroke-linecap:round"
       id="path91752-48-9-2-7-6-5-2-4"
       cx="222.21378"
       cy="19.014229"
       r="2.0859621" />
    <circle
       style="display:inline;fill:#ff0000;stroke:none;stroke-width:2.514;stroke-linecap:round"
       id="path91752-48-9-2-7-6-5-2-7"
       cx="248.0676"
       cy="19.459511"
       r="2.0859621" />
    <circle
       style="display:inline;fill:#ff0000;stroke:none;stroke-width:2.514;stroke-linecap:round"
       id="path91752-48-9-2-7-6-5-2-1"
       cx="283.55142"
       cy="19.570831"
       r="2.0859621" />
    <circle
       style="display:inline;fill:#ff0000;stroke:none;stroke-width:2.514;stroke-linecap:round"
       id="path91752-48-9-2-7-6-5-2-8"
       cx="178.99394"
       cy="238.42712"
       r="2.0859621" />
    <circle
       style="display:inline;fill:#ff0000;stroke:none;stroke-width:2.514;stroke-linecap:round"
       id="path91752-48-9-2-7-6-5-2-2"
       cx="205.18173"
       cy="229.85544"
       r="2.0859621" />
    <circle
       style="display:inline;fill:#ff0000;stroke:none;stroke-width:2.514;stroke-linecap:round"
       id="path91752-48-9-2-7-6-5-2-5"
       cx="205.18173"
       cy="238.09317"
       r="2.0859621" />
    <circle
       style="display:inline;fill:#ff0000;stroke:none;stroke-width:2.514;stroke-linecap:round"
       id="path91752-48-9-2-7-6-5-2-9"
       cx="243.9213"
       cy="238.31581"
       r="2.0859621" />
    <circle
       style="display:inline;fill:#ff0000;stroke:none;stroke-width:2.514;stroke-linecap:round"
       id="path91752-48-9-2-7-6-5-2-3"
       cx="279.87784"
       cy="238.42712"
       r="2.0859621" />
    <circle
       style="display:inline;fill:#ff0000;stroke:none;stroke-width:2.514;stroke-linecap:round"
       id="path91752-48-9-2-7-6-5-2-3-5"
       cx="300.75046"
       cy="233.19505"
       r="2.0859621" />
    <circle
       style="display:inline;fill:#ff0000;stroke:none;stroke-width:2.514;stroke-linecap:round"
       id="path91752-48-9-2-7-6-5-2-3-6"
       cx="300.69479"
       cy="224.84601"
       r="2.0859621" />
  </g>
  <g
     inkscape:groupmode="layer"
     id="layer7"
     inkscape:label="M1"
     style="display:inline;opacity:0.724382"
     transform="translate(-149.85539,-2.0934978)">
    <path
       style="fill:#00ffff;stroke:none;stroke-width:2.514;stroke-linecap:round"
       d="m 201.06286,153.37819 v 8.1264 h 7.34716 v 18.14526 h 4.34151 v 14.80564 h 10.35281 v -7.23584 h -4.8981 v -18.70186 h -5.78867 v -15.02828 z"
       id="path843" />
    <path
       style="fill:#00ffff;stroke:none;stroke-width:2.514;stroke-linecap:round"
       d="m 188.59496,149.48197 v 8.683 h 2.78301 v 10.7981 h 5.23207 v 17.69998 h -6.56791 v 9.79621 h 6.34527 v 8.57168 h -9.90753 v 9.35093 h 8.46036 v -3.56225 h 6.34528 v -45.53013 h -4.45283 v -15.80752 z"
       id="path993" />
    <path
       style="fill:#00ffff;stroke:none;stroke-width:2.514;stroke-linecap:round"
       d="m 163.99311,186.77437 v 6.90187 h 7.5698 v -11.13206 h 21.70751 v -10.90941 h -10.79809 v 6.34527 h -14.80564 v 8.75258 z"
       id="path1345" />
    <path
       style="display:inline;fill:#00ffff;stroke:none;stroke-width:2.514;stroke-linecap:round"
       d="m 173.62749,149.84258 v 6.45468 h -14.01137 v 49.03978 h 4.32935 v 7.39927 h -4.32935 v 5.27394 H 271.78577 V 194.002 h 7.24183 v 7.16312 h -3.69962 v 19.91503 H 156.54621 v -67.22307 h 10.15431 v -3.93578 z"
       id="path1533" />
    <path
       style="fill:#00ffff;stroke:none;stroke-width:2.514;stroke-linecap:round"
       d="m 200.84022,66.102841 h 9.01697 v -5.120748 h 2.89434 V 31.370815 h -51.43012 v 30.501844 h 3.33962 v 7.681121 h -7.5698 V 28.142517 h 59.11123 v 32.839576 h 1.89246 v 10.018855 h -6.79056 v 6.345272 h -10.68678 z"
       id="path3407" />
    <rect
       style="fill:#00ffff;stroke:none;stroke-width:2.514;stroke-linecap:round"
       id="rect3516"
       width="10.154305"
       height="17.553568"
       x="178.03555"
       y="61.366302" />
    <path
       style="fill:#00ffff;stroke:none;stroke-width:2.514;stroke-linecap:round"
       d="m 171.73831,43.340446 v 8.186417 h 18.41944 v 41.404378 h -20.54476 v 7.792839 h 6.84825 v -2.991191 h 18.89174 V 87.027575 h 4.95908 v 1.967889 h 9.20972 v -8.422563 h -9.13101 v 2.361464 h -4.95908 v -20.15118 h 8.97358 v -8.816141 h -9.05229 v -7.084399 h -15.6644 V 43.41916 Z"
       id="path3631" />
    <path
       style="fill:#00ffff;stroke:none;stroke-width:2.514;stroke-linecap:round"
       d="m 157.57745,105.6896 3.54258,-0.01 0.0197,-20.695785 h 7.45848 V 58.712314 h -4.11886 l 0.003,-22.709402 h 40.51722 v 5.788671 h 3.7849 v 8.571685 H 199.7675 V 40.121773 h -30.83581 v 15.696205 h 4.67547 v 33.062217 h -8.01508 v 16.352515 h 34.34778 v -4.09321 h -1.57431 v -8.107702 h 7.87155 v 8.028982 h -1.65302 v 8.42257 h -39.01983 l 0.0278,3.33077 h -8.01509 z"
       id="path3782"
       sodipodi:nodetypes="ccccccccccccccccccccccccccccccc" />
    <path
       style="fill:#00ffff;stroke:none;stroke-width:2.514;stroke-linecap:round"
       d="m 215.81902,76.086113 v 8.658711 h 9.99687 v -2.440183 h 2.36147 V 101.3538 h 9.28844 v -7.00568 h -5.11652 V 50.346129 h 8.65872 v -7.399261 h -7.71413 v -3.620916 h 45.34016 v 29.597046 h 7.55669 v -7.399261 h -3.5422 V 36.098615 h -53.99886 v 42.270248 h -2.67633 v -2.28275 z"
       id="path7215" />
    <path
       style="fill:#00ffff;stroke:none;stroke-width:2.514;stroke-linecap:round"
       d="m 237.30836,55.777503 v 6.612104 h 8.58 v -1.810456 h 4.5655 v 36.838876 h 11.6499 v 3.778343 h 6.69082 V 94.741698 H 253.28762 V 51.054569 h 15.90054 v -8.028985 h -8.02898 v 4.093207 h -10.6266 v 10.469168 h -4.80165 v -1.849815 z"
       id="path7330" />
    <path
       style="fill:#00ffff;stroke:none;stroke-width:2.514;stroke-linecap:round"
       d="m 257.78071,55.861347 v 6.679234 h 7.95942 v 26.995244 h 7.95942 v -7.8481 h 21.8745 v 11.46602 h -0.94622 v 8.571685 h 8.79432 v -8.627345 h -4.56414 V 42.892496 h -8.57169 v 6.901878 h 5.56603 V 77.568861 H 269.24673 V 59.256623 h -4.17452 v -3.506597 z"
       id="path7332" />
    <rect
       style="fill:#00ffff;stroke:none;stroke-width:2.514;stroke-linecap:round"
       id="rect8924"
       width="16.80941"
       height="11.132059"
       x="300.79919"
       y="175.97762" />
    <path
       style="fill:#00ffff;stroke:none;stroke-width:2.514;stroke-linecap:round"
       d="m 222.35241,159.28845 v 24.00824 h 7.47798 v 23.06366 h -4.09321 v 7.00568 c 0,0 7.24183,0.15743 7.24183,0 0,-0.15743 0,-18.10458 0,-18.10458 h 11.41375 v -7.87155 h -11.33504 v -7.79284 h -7.32054 v -16.37284 h 7.63541 v -7.6354 h -11.02018 z"
       id="path9664" />
    <path
       style="fill:#00ffff;stroke:none;stroke-width:2.514;stroke-linecap:round"
       d="m 230.14525,168.41945 v 6.84826 h 8.81614 v -1.81046 h 3.77835 v 9.60329 h 7.95027 v 26.68458 h 3.62091 v 2.99119 h 7.79284 v -6.76954 h -7.87155 V 179.2822 h -7.79284 v -16.13669 h 15.74311 v -7.00568 h -7.87156 v 3.62091 H 243.0546 v 10.39045 h -4.17193 v -1.88917 z"
       id="path9666" />
    <path
       style="fill:#00ffff;stroke:none;stroke-width:2.514;stroke-linecap:round"
       d="m 290.59879,169.12789 v 31.40751 h 18.18329 v 12.75191 h 7.95027 v -8.02898 c 0,0 -4.64421,0 -4.64421,0 0,0 0,-8.50128 0,-8.50128 h -13.61779 v -4.32936 h -4.17193 v -19.60017 h 17.55357 v -6.6121 h 3.93578 v -8.26513 h -7.5567 v 11.09889 h -17.711"
       id="path9668" />
    <path
       style="fill:#00ffff;stroke:none;stroke-width:2.514;stroke-linecap:round"
       d="m 292.33053,158.10771 v 7.79284 h -5.03779 v 39.43649 h 4.72293 v 7.95027 h -6.84825 v -3.54219 h -1.88918 v -36.36659 h -21.56806 v 19.91503 h 4.09321 v 7.24184 c 0,0 -7.10266,0.81314 -7.32054,0 -0.21788,-0.81315 0,-24.95283 0,-24.95283 h -7.47798 v -7.5567 h 8.18642 v 2.12532 h 23.85081 v -7.95027 h 2.59761 v -3.93577 z"
       id="path9670" />
  </g>
  <g
     inkscape:groupmode="layer"
     id="layer3"
     inkscape:label="via_M1"
     style="display:inline"
     transform="translate(-149.85539,-2.0934978)">
    <circle
       style="display:inline;fill:#008000;stroke:none;stroke-width:2.514;stroke-linecap:round"
       id="path91752-7-7"
       cx="205.18173"
       cy="84.804703"
       r="2.0859621" />
    <circle
       style="display:inline;fill:#008000;stroke:none;stroke-width:2.514;stroke-linecap:round"
       id="path91752-7-7-6"
       cx="202.51004"
       cy="97.272606"
       r="2.0859621" />
    <circle
       style="display:inline;fill:#008000;stroke:none;stroke-width:2.514;stroke-linecap:round"
       id="path91752-7-5"
       cx="205.0704"
       cy="157.49706"
       r="2.0859621" />
    <circle
       style="display:inline;fill:#008000;stroke:none;stroke-width:2.514;stroke-linecap:round"
       id="path91752-7-6"
       cx="218.98547"
       cy="190.55928"
       r="2.0859621" />
    <circle
       style="display:inline;fill:#008000;stroke:none;stroke-width:2.514;stroke-linecap:round"
       id="path91752-7-2"
       cx="192.4073"
       cy="153.26686"
       r="2.0859621" />
    <circle
       style="display:inline;fill:#008000;stroke:none;stroke-width:2.514;stroke-linecap:round"
       id="path91752-7-2-9"
       cx="170.164"
       cy="152.91249"
       r="2.0859621" />
    <circle
       style="display:inline;fill:#008000;stroke:none;stroke-width:2.514;stroke-linecap:round"
       id="path91752-7-2-6"
       cx="159.85226"
       cy="209.11539"
       r="2.0859621" />
    <circle
       style="display:inline;fill:#008000;stroke:none;stroke-width:2.514;stroke-linecap:round"
       id="path91752-7-2-0"
       cx="167.56639"
       cy="189.98752"
       r="2.0859621" />
    <circle
       style="display:inline;fill:#008000;stroke:none;stroke-width:2.514;stroke-linecap:round"
       id="path91752-7-0"
       cx="194.18843"
       cy="191.25464"
       r="2.0859621" />
    <circle
       style="display:inline;fill:#008000;stroke:none;stroke-width:2.514;stroke-linecap:round"
       id="path91752-7-3"
       cx="190.59872"
       cy="209.56764"
       r="2.0859621" />
    <circle
       style="display:inline;fill:#008000;stroke:none;stroke-width:2.514;stroke-linecap:round"
       id="path91752-7-4-5"
       cx="212.6402"
       cy="66.102837"
       r="2.0859621" />
    <circle
       style="display:inline;fill:#008000;stroke:none;stroke-width:2.514;stroke-linecap:round"
       id="path91752-7-4-5-7"
       cx="236.9935"
       cy="46.174206"
       r="2.0859621" />
    <circle
       style="display:inline;fill:#008000;stroke:none;stroke-width:2.514;stroke-linecap:round"
       id="path91752-7-4-5-4"
       cx="221.01425"
       cy="80.415466"
       r="2.0859621" />
    <circle
       style="display:inline;fill:#008000;stroke:none;stroke-width:2.514;stroke-linecap:round"
       id="path91752-7-4-5-2"
       cx="233.68745"
       cy="97.496742"
       r="2.0859621" />
    <circle
       style="display:inline;fill:#008000;stroke:none;stroke-width:2.514;stroke-linecap:round"
       id="path91752-7-4-5-8"
       cx="241.16542"
       cy="58.926125"
       r="2.0859621" />
    <circle
       style="display:inline;fill:#008000;stroke:none;stroke-width:2.514;stroke-linecap:round"
       id="path91752-7-4-5-0"
       cx="265.56726"
       cy="46.489067"
       r="2.0859621" />
    <circle
       style="display:inline;fill:#008000;stroke:none;stroke-width:2.514;stroke-linecap:round"
       id="path91752-7-4-5-30"
       cx="261.39532"
       cy="58.768692"
       r="2.0859621" />
    <circle
       style="display:inline;fill:#008000;stroke:none;stroke-width:2.514;stroke-linecap:round"
       id="path91752-7-4-5-1"
       cx="269.58173"
       cy="85.92556"
       r="2.0859621" />
    <circle
       style="display:inline;fill:#008000;stroke:none;stroke-width:2.514;stroke-linecap:round"
       id="path91752-7-4-5-6"
       cx="299.02136"
       cy="97.732887"
       r="2.0859621" />
    <circle
       style="display:inline;fill:#008000;stroke:none;stroke-width:2.514;stroke-linecap:round"
       id="path91752-7-4-5-13"
       cx="293.90485"
       cy="46.331638"
       r="2.0859621" />
    <circle
       style="display:inline;fill:#008000;stroke:none;stroke-width:2.514;stroke-linecap:round"
       id="path91752-7-4-5-66"
       cx="265.56726"
       cy="97.89032"
       r="2.0859621" />
    <circle
       style="display:inline;fill:#008000;stroke:none;stroke-width:2.514;stroke-linecap:round"
       id="path91752-7-4-5-66-4"
       cx="229.9091"
       cy="159.28845"
       r="2.0859621" />
    <circle
       style="display:inline;fill:#008000;stroke:none;stroke-width:2.514;stroke-linecap:round"
       id="path91752-7-4-5-66-8"
       cx="229.83038"
       cy="209.6664"
       r="2.0859621" />
    <circle
       style="display:inline;fill:#008000;stroke:none;stroke-width:2.514;stroke-linecap:round"
       id="path91752-7-4-5-66-6"
       cx="258.87643"
       cy="209.58769"
       r="2.0859621" />
    <circle
       style="display:inline;fill:#008000;stroke:none;stroke-width:2.514;stroke-linecap:round"
       id="path91752-7-4-5-66-62"
       cx="241.008"
       cy="190.85338"
       r="2.0859621" />
    <circle
       style="display:inline;fill:#008000;stroke:none;stroke-width:2.514;stroke-linecap:round"
       id="path91752-7-4-5-3"
       cx="205.29305"
       cy="45.842491"
       r="2.0859621" />
    <circle
       style="display:inline;fill:#008000;stroke:none;stroke-width:2.514;stroke-linecap:round"
       id="path91752-7-4-5-3-3"
       cx="199.0591"
       cy="58.199078"
       r="2.0859621" />
    <circle
       style="display:inline;fill:#008000;stroke:none;stroke-width:2.514;stroke-linecap:round"
       id="path91752-7-4-5-3-3-3"
       cx="183.02893"
       cy="65.21228"
       r="2.0859621" />
    <circle
       style="display:inline;fill:#008000;stroke:none;stroke-width:2.514;stroke-linecap:round"
       id="path91752-7-4-5-3-3-3-1"
       cx="175.35922"
       cy="47.433655"
       r="2.0859621" />
    <circle
       style="display:inline;fill:#008000;stroke:none;stroke-width:2.514;stroke-linecap:round"
       id="path91752-7-4-5-3-3-3-4"
       cx="173.39134"
       cy="97.024452"
       r="2.0859621" />
    <circle
       style="display:inline;fill:#008000;stroke:none;stroke-width:2.514;stroke-linecap:round"
       id="path91752-7-66"
       cx="161.43274"
       cy="66.102844"
       r="2.0859621" />
    <circle
       style="display:inline;fill:#008000;stroke:none;stroke-width:2.514;stroke-linecap:round"
       id="path91752-7-59"
       cx="161.2101"
       cy="108.96127"
       r="2.0859621" />
    <circle
       style="display:inline;fill:#008000;stroke:none;stroke-width:2.514;stroke-linecap:round"
       id="path91752-7-4-5-76"
       cx="282.0975"
       cy="65.380798"
       r="2.0859621" />
    <circle
       style="display:inline;fill:#008000;stroke:none;stroke-width:2.514;stroke-linecap:round"
       id="path91752-7-4-5-66-81-5-9"
       cx="312.48172"
       cy="182.03725"
       r="2.0859621" />
    <circle
       style="display:inline;fill:#008000;stroke:none;stroke-width:2.514;stroke-linecap:round"
       id="path91752-7-4-5-66-7"
       cx="233.9236"
       cy="171.56807"
       r="2.0859621" />
    <circle
       style="display:inline;fill:#008000;stroke:none;stroke-width:2.514;stroke-linecap:round"
       id="path91752-7-4-5-66-3"
       cx="254.46835"
       cy="171.72551"
       r="2.0859621" />
    <circle
       style="display:inline;fill:#008000;stroke:none;stroke-width:2.514;stroke-linecap:round"
       id="path91752-7-4-5-66-68"
       cx="258.2467"
       cy="159.36717"
       r="2.0859621" />
    <circle
       style="display:inline;fill:#008000;stroke:none;stroke-width:2.514;stroke-linecap:round"
       id="path91752-7-4-5-66-81"
       cx="288.86707"
       cy="161.25633"
       r="2.0859621" />
    <circle
       style="display:inline;fill:#008000;stroke:none;stroke-width:2.514;stroke-linecap:round"
       id="path91752-7-4-5-66-81-5"
       cx="311.77328"
       cy="161.5712"
       r="2.0859621" />
    <circle
       style="display:inline;fill:#008000;stroke:none;stroke-width:2.514;stroke-linecap:round"
       id="path91752-7-4-5-66-81-5-1"
       cx="276.20425"
       cy="197.01587"
       r="2.0859621" />
    <circle
       style="display:inline;fill:#008000;stroke:none;stroke-width:2.514;stroke-linecap:round"
       id="path91752-7-4-5-66-81-5-10"
       cx="261.8439"
       cy="196.79323"
       r="2.0859621" />
    <circle
       style="display:inline;fill:#008000;stroke:none;stroke-width:2.514;stroke-linecap:round"
       id="path91752-7-4-5-66-39"
       cx="289.41806"
       cy="209.50897"
       r="2.0859621" />
    <circle
       style="display:inline;fill:#008000;stroke:none;stroke-width:2.514;stroke-linecap:round"
       id="path91752-7-4-5-66-1"
       cx="311.93069"
       cy="209.27283"
       r="2.0859621" />
  </g>
  <g
     inkscape:groupmode="layer"
     id="layer8"
     inkscape:label="ports"
     transform="translate(-149.85539,-2.0934978)">
    <text
       xml:space="preserve"
       style="font-size:8.46667px;line-height:1.25;font-family:sans-serif;stroke-width:0.264583"
       x="180.28015"
       y="76.40403"
       id="text97862"><tspan
         sodipodi:role="line"
         id="tspan97860"
         style="font-size:8.46667px;fill:#0000ff;stroke-width:0.264583"
         x="180.28015"
         y="76.40403">D</tspan></text>
    <text
       xml:space="preserve"
       style="font-size:8.46667px;line-height:1.25;font-family:sans-serif;stroke-width:0.264583"
       x="300.94119"
       y="184.62015"
       id="text97862-3"><tspan
         sodipodi:role="line"
         id="tspan97860-6"
         style="font-size:8.46667px;fill:#0000ff;stroke-width:0.264583"
         x="300.94119"
         y="184.62015">CLK</tspan></text>
    <text
       xml:space="preserve"
       style="font-size:8.46667px;line-height:1.25;font-family:sans-serif;stroke-width:0.264583"
       x="210.50267"
       y="176.77126"
       id="text97862-8"><tspan
         sodipodi:role="line"
         id="tspan97860-9"
         style="font-size:8.46667px;fill:#0000ff;stroke-width:0.264583"
         x="210.50267"
         y="176.77126">Q</tspan></text>
    <text
       xml:space="preserve"
       style="font-size:8.46667px;line-height:1.25;font-family:sans-serif;stroke-width:0.264583"
       x="200.61389"
       y="74.774155"
       id="text97862-9"><tspan
         sodipodi:role="line"
         id="tspan97860-4"
         style="font-size:8.46667px;fill:#0000ff;stroke-width:0.264583"
         x="200.61389"
         y="74.774155">LD</tspan></text>
    <text
       xml:space="preserve"
       style="font-size:8.46667px;line-height:1.25;font-family:sans-serif;stroke-width:0.264583"
       x="179.3604"
       y="180.38995"
       id="text97862-9-2"><tspan
         sodipodi:role="line"
         id="tspan97860-4-4"
         style="font-size:8.46667px;fill:#0000ff;stroke-width:0.264583"
         x="179.3604"
         y="180.38995">RST</tspan></text>
  </g>
</svg>
